<svg data-v-0dd9719b="" version="1.0" xmlns="http://www.w3.org/2000/svg" xmlns:xlink="http://www.w3.org/1999/xlink" width="100%" height="100%" viewBox="0 0 340.000000 250.000000" preserveAspectRatio="xMidYMid meet" color-interpolation-filters="sRGB" style="margin: auto;"> <rect data-v-0dd9719b="" x="0" y="0" width="100%" height="100%" fill="#fff" fill-opacity="1" class="background"></rect> <rect data-v-0dd9719b="" x="0" y="0" width="100%" height="100%" fill="url(#watermark)" fill-opacity="1" class="watermarklayer"></rect> <g data-v-0dd9719b="" fill="#ee7300" class="icon-text-wrapper icon-svg-group iconsvg" transform="translate(48.52837371826172,96.4671573638916)"><g class="iconsvg-imagesvg" transform="translate(0,0)"><g><rect fill="#ee7300" fill-opacity="0" stroke-width="2" x="0" y="0" width="60" height="57.06568260067338" class="image-rect"></rect> <svg x="0" y="0" width="60" height="57.06568260067338" filtersec="colorsb9444241904" class="image-svg-svg primary" style="overflow: visible;"><svg xmlns="http://www.w3.org/2000/svg" viewBox="0 0 347.20001220703125 330.22003173828125"><g><g fill-rule="evenodd"><path d="M97.57 128.22A95 95 0 0 1 255.9 232.75c-9.53 16.51-32 1.29-23.45-13.54a68 68 0 0 0-12.87-84A31.68 31.68 0 1 1 194 120.4a68 68 0 0 0-74.14 23.3c-.54-10.7-12.33-18.96-22.29-15.48z" fill="#ee7300"></path><path d="M249.64 242.25A95 95 0 0 1 91.31 137.72c9.53-16.51 32-1.3 23.45 13.54a68 68 0 0 0 12.87 84 31.68 31.68 0 1 1 25.62 14.79 68 68 0 0 0 74.14-23.3c.5 10.77 12.29 18.98 22.25 15.5z" fill="#00a2df"></path><path d="M173.6 0l61.25 98.23 112.35 27.9-74.5 88.61 8.19 115.47-107.29-43.46-107.29 43.47 8.19-115.48L0 126.13l112.35-27.9L173.6 0zm0 84.88A100.36 100.36 0 1 0 274 185.24 100.36 100.36 0 0 0 173.6 84.88z" fill="#fdd000"></path></g></g></svg></svg> <!----></g></g> <g transform="translate(67,0.1738910675048828)"><g data-gra="path-name" fill-rule="" class="tp-name iconsvg-namesvg" transform="translate(0,0)"><g transform="scale(1)"><g><path d="M5.71 3.65L5.71 3.65Q6.33 3.96 7.71 3.54 9.1 3.12 9.76 2.42L9.76 2.42Q9.93 2.2 9.95 1.85 9.98 1.49 9.89-0.4L9.89-0.4Q9.76-3.52 9.73-13.07 9.71-22.63 9.84-22.94L9.84-22.94Q10.02-23.33 10.28-23.42L10.28-23.42Q10.9-23.6 17.67-23.6L17.67-23.6Q18.41-23.6 19.64-23.6L19.64-23.6Q24.21-23.6 24.92-23.4 25.62-23.2 25.36-21.97L25.36-21.97Q25.27-21.58 25.22-21.31L25.22-21.31Q24.35-16.04 23.25-15.47L23.25-15.47Q22.9-15.29 21.47-15.27 20.04-15.25 19.73-15.42L19.73-15.42Q19.38-15.6 19.4-15.8 19.42-16 19.86-16.79L19.86-16.79Q20.61-18.02 19.67-19.56 18.72-21.09 16.52-22.1L16.52-22.1Q14.55-23.03 14.55-22.5L14.55-22.5Q14.55-22.37 14.77-22.02L14.77-22.02Q16.22-19.25 16.52-17.27L16.52-17.27Q16.66-16.52 16.79-16.3L16.79-16.3Q17.4-15.64 16.22-15.34L16.22-15.34Q15.6-15.21 12.35-15.51L12.35-15.51Q11.73-15.6 11.73-15.42L11.73-15.42Q11.73-15.25 12.13-14.41L12.13-14.41Q12.48-13.67 12.68-13.54 12.88-13.4 13.36-13.54L13.36-13.54Q14.77-13.84 16.94-13.97 19.12-14.11 19.51-13.89L19.51-13.89Q20.17-13.54 20.19-11.25 20.21-8.96 19.56-8.61L19.56-8.61Q19.29-8.48 16.68-8.5 14.06-8.53 12.44-8.66L12.44-8.66Q11.38-8.75 11.27-8.64 11.16-8.53 11.6-7.65L11.6-7.65Q12.04-6.81 12.24-6.72 12.44-6.64 13.54-6.81L13.54-6.81Q19.42-7.78 20.04-6.59L20.04-6.59Q20.17-6.28 20.15-3.63 20.13-0.97 20 0.66L20 0.66Q19.86 2.15 20.3 2.5 20.74 2.86 22.24 2.55L22.24 2.55Q23.69 2.24 23.99 1.8 24.3 1.36 24.21-0.35L24.21-0.35Q23.99-5.14 24.17-5.89L24.17-5.89Q24.43-6.94 25.71-7.12L25.71-7.12Q26.15-7.16 29.09-7.21L29.09-7.21Q33.4-7.25 33.77-7.73 34.15-8.22 31.42-10.28L31.42-10.28Q30.32-11.12 29.99-11.07 29.66-11.03 28.83-10.02L28.83-10.02Q27.99-8.88 27.62-8.68 27.25-8.48 26.06-8.48L26.06-8.48Q24.65-8.48 24.39-8.85 24.13-9.23 24.13-11.21L24.13-11.21Q24.13-11.43 24.13-11.87L24.13-11.87Q24.08-13.4 24.48-13.67L24.48-13.67Q24.87-14.02 27.73-14.02L27.73-14.02Q28.48-14.02 28.87-14.02L28.87-14.02Q33.18-14.06 33.44-14.46L33.44-14.46Q33.66-14.77 32.43-15.91L32.43-15.91Q30.85-17.36 30.28-17.47 29.71-17.58 28.92-16.66L28.92-16.66Q28.3-15.82 27.93-15.58 27.55-15.34 26.89-15.29L26.89-15.29Q25.71-15.25 25.73-15.75 25.75-16.26 26.89-17.53L26.89-17.53Q27.38-18.11 28.3-19.2L28.3-19.2Q29.58-20.7 30.1-20.87L30.1-20.87Q31.2-21.18 29-22.1L29-22.1Q27.16-22.9 27.16-23.2L27.16-23.2Q27.16-23.6 31.25-23.6L31.25-23.6Q31.77-23.6 32.65-23.64L32.65-23.64Q34.76-23.73 35.09-22.83 35.42-21.93 35.38-16.35L35.38-16.35Q35.38-13.97 35.38-12.48L35.38-12.48Q35.38-11.21 35.38-9.1L35.38-9.1Q35.42-2.77 35.05-1.76 34.67-0.75 32.48-0.97L32.48-0.97Q31.73-1.01 31.29-1.05L31.29-1.05Q28.74-1.23 28.7-1.1L28.7-1.1Q28.56-0.88 28.76-0.73 28.96-0.57 29.62-0.44L29.62-0.44Q31.51-0.04 32.41 0.79 33.31 1.63 33.62 3.21L33.62 3.21Q33.66 3.69 33.9 3.76 34.15 3.82 35.07 3.65L35.07 3.65Q36.87 3.34 37.81 2.68 38.76 2.02 39.16 0.88L39.16 0.88Q39.38 0.31 39.42-10.9L39.42-10.9Q39.46-21.67 39.64-22.41L39.64-22.41Q39.73-22.81 40.17-22.98L40.17-22.98Q40.25-23.03 40.34-23.07L40.34-23.07Q41.22-23.64 41.22-23.86 41.22-24.08 39.75-25.36 38.28-26.63 37.53-26.98L37.53-26.98Q37.13-27.2 36.91-27.14 36.69-27.07 36.34-26.63L36.34-26.63Q35.2-25.36 34.94-25.18L34.94-25.18Q34.37-24.83 31.33-24.83L31.33-24.83Q30.15-24.83 29.79-24.83 29.44-24.83 28.78-24.83L28.78-24.83Q25.27-24.83 24.74-25.14L24.74-25.14Q24.3-25.49 24.3-26.89L24.3-26.89Q24.3-27.25 24.3-27.42L24.3-27.42Q24.26-29.36 24.35-29.49L24.35-29.49Q24.57-30.19 26.5-30.28L26.5-30.28Q26.89-30.28 33.44-30.32L33.44-30.32Q40.08-30.37 41.2-30.43 42.32-30.5 42.45-30.85L42.45-30.85Q42.54-31.2 41.04-32.67 39.55-34.15 38.28-34.89L38.28-34.89Q37.88-35.11 37.62-34.96 37.35-34.8 36.69-33.88L36.69-33.88Q35.82-32.83 35.55-32.43L35.55-32.43Q35.07-31.82 34.37-31.71 33.66-31.6 29.79-31.6L29.79-31.6Q25.36-31.6 24.83-31.86L24.83-31.86Q24.35-32.48 24.35-33.53L24.35-33.53Q24.35-35.24 25.05-35.64L25.05-35.64Q26.1-36.25 23.69-37L23.69-37Q22.72-37.35 21.14-37.71L21.14-37.71Q20.04-37.97 19.95-37.79L19.95-37.79Q19.91-37.71 20-36.87L20-36.87Q20.52-31.99 19.34-31.68L19.34-31.68Q18.76-31.51 11.27-31.62 3.78-31.73 2.68-31.9L2.68-31.9Q2.33-31.99 2.37-31.68L2.37-31.68Q2.42-31.42 2.77-30.67L2.77-30.67Q3.16-29.93 3.34-29.84L3.34-29.84Q3.52-29.79 5.27-30.01L5.27-30.01Q7.78-30.32 13.93-30.32L13.93-30.32Q14.55-30.32 15.6-30.32L15.6-30.32Q19.29-30.32 19.82-30.01L19.82-30.01Q20.3-29.71 20.26-28.3L20.26-28.3Q20.26-28.26 20.26-28.13L20.26-28.13Q20.26-27.69 20.26-27.42L20.26-27.42Q20.26-27.25 20.26-26.94L20.26-26.94Q20.26-25.44 19.86-25.18L19.86-25.18Q19.29-24.83 15.86-24.83L15.86-24.83Q15.25-24.83 14.9-24.83L14.9-24.83Q11.03-24.83 10.31-24.94 9.58-25.05 7.51-25.97L7.51-25.97Q5.36-26.89 5.23-26.89 5.1-26.89 5.36-24.17L5.36-24.17Q5.63-21.58 5.58-12.63 5.54-3.69 5.27 0.83L5.27 0.83Q5.14 2.68 5.21 3.08 5.27 3.47 5.71 3.65ZM63.46 3.6L63.46 3.6Q63.68 4.04 65.59 3.47 67.5 2.9 68.29 2.15L68.29 2.15Q69.13 1.32 69.3 0.7L69.3 0.7Q69.61-0.4 69.65-8.66L69.65-8.66Q69.65-9.1 69.65-9.4L69.65-9.4Q69.7-18.37 69.83-18.59L69.83-18.59Q70.09-18.94 71.1-18.98 72.11-19.03 78.57-19.07L78.57-19.07Q85.08-19.12 86.18-19.18 87.28-19.25 87.32-19.69L87.32-19.69Q87.32-19.73 87.32-19.78L87.32-19.78Q87.36-20 86.35-20.98 85.34-21.97 84.24-22.81L84.24-22.81Q83.1-23.64 82.81-23.64 82.53-23.64 81.78-22.63L81.78-22.63Q80.38-20.74 79.94-20.52L79.94-20.52Q79.63-20.35 65.35-20.35 51.06-20.35 49.44-20.52L49.44-20.52Q48.43-20.61 48.34-20.5 48.25-20.39 48.69-19.56L48.69-19.56Q49.13-18.63 49.31-18.54 49.48-18.46 50.58-18.63L50.58-18.63Q52.91-18.98 59.11-19.03L59.11-19.03Q63.63-19.07 64.29-19.01 64.95-18.94 65.17-18.46L65.17-18.46Q65.39-18.11 65.39-10.17 65.39-2.24 65.17-1.89L65.17-1.89Q64.91-1.32 64.18-1.23 63.46-1.14 60.64-1.36L60.64-1.36Q58.67-1.49 58.27-1.47 57.88-1.45 57.88-1.27L57.88-1.27Q57.88-0.97 58.84-0.75L58.84-0.75Q60.91-0.35 62.14 0.73 63.37 1.8 63.37 3.21L63.37 3.21Q63.37 3.43 63.46 3.6ZM49.04-22.54L49.04-22.54Q50.8-21.93 52.43-23.66 54.05-25.4 54.36-28.26L54.36-28.26Q54.54-29.66 54.98-29.93L54.98-29.93Q55.24-30.06 67.65-30.08 80.07-30.1 80.38-29.93L80.38-29.93Q80.95-29.62 80.77-28.83L80.77-28.83Q80.6-27.95 79.58-24.92L79.58-24.92Q79.19-23.73 79.67-23.77L79.67-23.77Q80.46-23.86 84.16-27.51L84.16-27.51Q85.25-28.61 85.67-28.89 86.09-29.18 86.62-29.31L86.62-29.31Q87.54-29.58 87.1-30.28L87.1-30.28Q86.75-30.85 85.17-32.39L85.17-32.39Q83.85-33.66 83.5-33.71L83.5-33.71Q83.1-33.66 82.09-32.61L82.09-32.61Q81.04-31.55 80.44-31.44 79.85-31.33 75.37-31.33L75.37-31.33Q75.01-31.33 74.4-31.33L74.4-31.33Q70.49-31.33 69.96-31.64L69.96-31.64Q69.57-31.9 69.57-33.13L69.57-33.13Q69.57-33.35 69.57-33.49L69.57-33.49Q69.57-35.29 70.27-35.77L70.27-35.77Q71.15-36.34 69.57-36.91L69.57-36.91Q68.77-37.22 67.06-37.62L67.06-37.62Q65.48-38.01 65.24-37.97 65-37.92 65.08-37.27L65.08-37.27Q65.48-33.84 65.3-32.61L65.3-32.61Q65.26-31.6 64.64-31.46 64.03-31.33 59.81-31.33L59.81-31.33Q55.24-31.33 54.71-31.55L54.71-31.55Q54.27-31.82 54.05-32.74L54.05-32.74Q53.88-33.49 53.79-33.66 53.7-33.84 53.53-33.84L53.53-33.84Q53.13-33.84 53.04-33L53.04-33Q52.91-31.33 51.9-29.6 50.89-27.86 49.44-26.89L49.44-26.89Q47.86-25.8 47.72-24.41 47.59-23.03 49.04-22.54ZM92.94 2.02L92.94 2.02Q93.38 2.86 93.52 2.94 93.65 3.03 94.44 2.9L94.44 2.9Q96.42 2.59 98.99 2.53 101.56 2.46 114.57 2.42L114.57 2.42Q131.4 2.37 132.1 2.2L132.1 2.2Q132.32 2.07 132.36 1.85L132.36 1.85Q132.58 1.1 129.51-1.41L129.51-1.41Q128.41-2.29 128.12-2.18 127.84-2.07 126.78-0.57L126.78-0.57Q126.65-0.44 126.47-0.13L126.47-0.13Q125.77 0.88 125.16 1.03 124.54 1.19 121.55 1.19L121.55 1.19Q120.89 1.19 120.54 1.19L120.54 1.19Q120.1 1.19 119.27 1.19L119.27 1.19Q116.1 1.19 115.62 0.83L115.62 0.83Q115.14 0.53 115.18-1.14L115.18-1.14Q115.18-1.23 115.18-1.36L115.18-1.36Q115.18-1.89 115.18-2.2L115.18-2.2Q115.18-4.53 115.27-4.79L115.27-4.79Q115.53-5.49 117.33-5.58L117.33-5.58Q117.6-5.58 122.17-5.58L122.17-5.58Q126.96-5.58 127.77-5.63 128.58-5.67 128.8-6.02L128.8-6.02Q129.29-6.68 126.39-9.01L126.39-9.01Q125.11-10.02 124.83-9.95 124.54-9.89 123.44-8.35L123.44-8.35Q122.65-7.25 122.3-7.08L122.3-7.08Q121.9-6.9 119.09-6.86L119.09-6.86Q118.78-6.86 118.17-6.86L118.17-6.86Q115.88-6.86 115.49-7.16L115.49-7.16Q115.18-7.47 115.18-9.23L115.18-9.23Q115.18-9.49 115.18-9.67L115.18-9.67Q115.18-11.65 115.27-11.82L115.27-11.82Q115.53-12.48 117.51-12.57L117.51-12.57Q117.91-12.57 122.48-12.61L122.48-12.61Q129.02-12.66 129.38-12.88L129.38-12.88Q129.51-12.96 129.51-13.27L129.51-13.27Q129.51-13.67 127.81-15.25 126.12-16.83 125.55-16.96L125.55-16.96Q125.29-17.05 124.98-16.7 124.67-16.35 123.57-14.85L123.57-14.85Q123.05-14.06 122.54-13.95 122.04-13.84 119.22-13.84L119.22-13.84Q116.15-13.84 115.66-14.06 115.18-14.28 115.18-15.64 115.18-17.01 115.93-17.71L115.93-17.71Q116.59-18.24 115.4-18.72L115.4-18.72Q114.83-18.94 113.82-19.25L113.82-19.25Q111.05-20.08 110.79-19.86L110.79-19.86Q110.61-19.73 110.7-18.98L110.7-18.98Q111.14-14.77 110.43-14.11L110.43-14.11Q110.13-13.89 107.62-13.84 105.12-13.8 104.81-14.02L104.81-14.02Q104.33-14.37 105.05-15.71 105.78-17.05 106.52-17.23L106.52-17.23Q107.93-17.53 105.42-18.68L105.42-18.68Q104.28-19.16 103.97-19.51 103.67-19.86 103.84-20.39L103.84-20.39Q103.84-20.43 103.89-20.52L103.89-20.52Q104.02-20.96 104.99-21.03 105.95-21.09 111.31-21.14L111.31-21.14Q112.19-21.14 112.68-21.14L112.68-21.14Q120.63-21.14 121.29-20.96L121.29-20.96Q121.86-20.48 121.86-19.91L121.86-19.91Q121.86-18.81 124.28-19.47L124.28-19.47Q125.82-19.91 126.12-20.32 126.43-20.74 126.34-22.15L126.34-22.15Q126.21-24.52 126.21-27.91L126.21-27.91Q126.04-30.28 126.19-31.46 126.34-32.65 126.47-32.83 126.61-33 127.4-33.49L127.4-33.49Q127.71-33.71 127.75-33.93 127.79-34.15 127.53-34.5 127.27-34.85 126.74-35.31 126.21-35.77 125.24-36.47L125.24-36.47Q124.1-37.31 123.73-37.29 123.35-37.27 122.61-36.43L122.61-36.43Q122.48-36.3 122.3-36.08L122.3-36.08Q121.73-35.38 120.85-35.24 119.97-35.11 115.49-35.11L115.49-35.11Q113.77-35.11 112.72-35.11L112.72-35.11Q104.15-35.11 103.84-35.2L103.84-35.2Q103.1-35.51 101.29-36.17L101.29-36.17Q99.32-37 99.14-36.87L99.14-36.87Q99.01-36.78 99.14-35.77L99.14-35.77Q99.45-32.96 99.49-25.44L99.49-25.44Q99.58-18.98 99.76-18.72L99.76-18.72Q99.8-18.63 100.15-18.68L100.15-18.68Q101.03-18.76 101.25-18.19L101.25-18.19Q101.56-17.31 99.47-13.49 97.38-9.67 95.19-7.03L95.19-7.03Q94.26-6.06 94.35-5.89L94.35-5.89Q94.48-5.49 95.67-6.13 96.86-6.77 98.53-8.15 100.2-9.54 101.65-11.12L101.65-11.12Q102.7-12.22 103.1-12.39L103.1-12.39Q103.62-12.57 106.66-12.61L106.66-12.61Q106.88-12.61 107.31-12.61L107.31-12.61Q110-12.61 110.43-12.3 110.87-12 110.87-10.15L110.87-10.15Q110.87-9.84 110.87-9.67L110.87-9.67Q110.87-8.04 110.79-7.6 110.7-7.16 110.3-6.99L110.3-6.99Q110.04-6.86 105.73-6.88 101.43-6.9 99.89-7.03L99.89-7.03Q98.83-7.12 98.77-7.01 98.7-6.9 99.1-6.02 99.49-5.14 99.65-5.05 99.8-4.97 100.68-5.1L100.68-5.1Q102.92-5.45 106.35-5.56 109.78-5.67 110.26-5.45L110.26-5.45Q111.01-5.05 111.01-2.18 111.01 0.7 110.26 1.01L110.26 1.01Q109.78 1.23 102.81 1.16 95.84 1.1 93.38 0.88L93.38 0.88Q92.77 0.7 92.61 0.86 92.46 1.01 92.5 1.14 92.55 1.27 92.94 2.02ZM121.33-22.54L121.33-22.54Q121.03-22.37 112.81-22.39 104.59-22.41 104.33-22.59L104.33-22.59Q103.71-22.94 103.71-25 103.71-27.07 104.33-27.42L104.33-27.42Q104.63-27.6 112.83-27.6 121.03-27.6 121.33-27.42L121.33-27.42Q121.9-27.07 121.9-24.98 121.9-22.9 121.33-22.54ZM121.33-28.92L121.33-28.92Q121.03-28.74 112.81-28.76 104.59-28.78 104.33-28.96L104.33-28.96Q103.71-29.31 103.75-31.33 103.8-33.35 104.41-33.66L104.41-33.66Q104.77-33.84 112.83-33.84 120.89-33.84 121.25-33.66L121.25-33.66Q121.9-33.35 121.93-31.33 121.95-29.31 121.33-28.92ZM153.81 3.6L153.81 3.6Q154.6 4 156.07 3.38 157.54 2.77 157.59 2.02L157.59 2.02Q157.68 1.05 158.03 0.88L158.03 0.88Q158.69 0.62 163.52 0.62L163.52 0.62Q168.4 0.62 168.93 0.88L168.93 0.88Q169.32 1.1 169.28 2.02L169.28 2.02Q169.28 2.11 169.28 2.15L169.28 2.15Q169.28 3.03 169.8 3.21 170.33 3.38 171.65 2.99L171.65 2.99Q173.19 2.55 173.41 2.15 173.63 1.76 173.54-0.22L173.54-0.22Q173.23-6.46 173.39-8.17 173.54-9.89 174.42-10.37L174.42-10.37Q175.17-10.77 175.08-11.12 174.99-11.47 173.85-12.44L173.85-12.44Q171.91-14.06 171.34-14.13 170.77-14.19 169.72-12.96L169.72-12.96Q169.1-12.17 168.38-12.06 167.65-11.95 163.3-11.95L163.3-11.95Q158.91-11.95 158.16-12.06 157.41-12.17 155.39-13.05L155.39-13.05Q153.5-13.89 153.33-13.75 153.15-13.62 153.37-11.82L153.37-11.82Q153.59-9.76 153.61-4.86 153.63 0.04 153.46 2.07L153.46 2.07Q153.33 3.34 153.81 3.6ZM168.84-0.75L168.84-0.75Q168.53-0.53 163.48-0.57 158.42-0.62 158.12-0.83L158.12-0.83Q157.5-1.23 157.5-5.67 157.5-10.11 158.12-10.5L158.12-10.5Q158.42-10.72 163.48-10.77 168.53-10.81 168.84-10.59L168.84-10.59Q169.23-10.37 169.3-9.73 169.37-9.1 169.37-5.67 169.37-2.24 169.3-1.6 169.23-0.97 168.84-0.75ZM143.88 1.67L143.88 1.67Q144.05 1.85 144.51 1.36 144.98 0.88 144.98 0.57L144.98 0.57Q144.98 0.31 146.6-1.63L146.6-1.63Q147.52-2.72 148.36-3.78L148.36-3.78Q152.27-8.66 152.01-8.88L152.01-8.88Q151.83-9.01 149.85-7.69L149.85-7.69Q147.96-6.42 147.74-6.37L147.74-6.37Q147.22-6.28 147.04-7.03L147.04-7.03Q146.87-7.87 146.87-15.16L146.87-15.16Q146.87-21.62 146.95-22.74 147.04-23.86 147.57-24.13L147.57-24.13Q147.7-24.17 147.74-24.21L147.74-24.21Q148.54-24.65 148.18-25.4 147.83-26.15 146.21-27.47L146.21-27.47Q145.37-28.21 145.09-28.17 144.8-28.13 144.14-27.25L144.14-27.25Q143.26-26.15 142.34-25.95 141.42-25.75 138.52-26.02L138.52-26.02Q137.37-26.1 137.26-26.02 137.15-25.93 137.59-25.05L137.59-25.05Q138.03-24.21 138.19-24.13 138.34-24.04 139.13-24.26L139.13-24.26Q140.54-24.65 141.59-24.57 142.65-24.48 142.87-23.99L142.87-23.99Q143.04-23.6 143.02-14.11 143-4.61 142.78-4.26L142.78-4.26Q142.47-3.69 141.59-3.08L141.59-3.08Q141.2-2.9 141.2-2.77L141.2-2.77Q141.2-2.68 142.47-0.57 143.75 1.54 143.88 1.67ZM148.8-16.61L148.8-16.61Q149.24-15.78 149.39-15.69 149.55-15.6 150.34-15.73L150.34-15.73Q152.23-16.04 154.25-16.11 156.27-16.17 165.5-16.22L165.5-16.22Q177.71-16.26 177.98-16.44L177.98-16.44Q178.46-16.74 178.24-17.2 178.02-17.67 176.92-18.76 175.83-19.86 175.43-20.1 175.03-20.35 174.75-20.21 174.46-20.08 173.94-19.25L173.94-19.25Q172.75-17.58 172.35-18.19L172.35-18.19Q172.27-18.28 172.22-18.41L172.22-18.41Q172.09-18.68 172.09-21.64 172.09-24.61 172.18-24.87L172.18-24.87Q172.44-25.53 173.14-25.88L173.14-25.88Q173.76-26.19 173.54-26.65 173.32-27.11 172.13-28.17L172.13-28.17Q170.51-29.62 170.07-29.66 169.63-29.71 168.66-28.52L168.66-28.52Q167.92-27.6 167.52-27.47 167.12-27.33 164.93-27.33L164.93-27.33Q162.47-27.33 162.18-27.66 161.89-27.99 162.42-30.41L162.42-30.41Q162.51-30.72 162.6-31.25L162.6-31.25Q162.73-31.99 162.84-32.28 162.95-32.56 163.21-32.85 163.48-33.13 164.03-33.18 164.58-33.22 165.45-33.27 166.33-33.31 167.87-33.31L167.87-33.31Q168.97-33.31 169.63-33.31L169.63-33.31Q174.42-33.35 175.25-33.42 176.09-33.49 176.18-33.88L176.18-33.88Q176.26-34.23 175.39-35.22 174.51-36.21 173.32-37.09L173.32-37.09Q172.49-37.66 172.22-37.55 171.96-37.44 171.12-36.25L171.12-36.25Q170.29-34.98 169.72-34.76L169.72-34.76Q169.19-34.54 161.43-34.58 153.68-34.63 151.22-34.85L151.22-34.85Q150.42-34.89 150.36-34.78 150.29-34.67 150.69-33.84L150.69-33.84Q151.08-32.96 151.3-32.87 151.52-32.78 152.71-33L152.71-33Q154.12-33.22 156.01-33.29 157.9-33.35 158.29-33.18L158.29-33.18Q159.21-32.7 157.94-28.39L157.94-28.39Q157.68-27.47 156.71-27.33 155.74-27.2 152.18-27.47L152.18-27.47Q151-27.55 150.89-27.49 150.78-27.42 151.17-26.67L151.17-26.67Q151.61-25.71 151.81-25.6 152.01-25.49 152.93-25.71L152.93-25.71Q154.82-26.19 155.98-25.99 157.15-25.8 157.15-25.05L157.15-25.05Q157.15-24.61 156.45-21.73 155.74-18.85 155.52-18.33L155.52-18.33Q154.95-17.01 149.11-17.71L149.11-17.71Q148.36-17.8 148.34-17.69 148.32-17.58 148.8-16.61ZM167.52-17.58L167.52-17.58Q167.17-17.4 163.74-17.42 160.31-17.45 160-17.62L160-17.62Q159.57-17.84 159.61-18.41 159.65-18.98 160.44-22.06L160.44-22.06Q160.53-22.46 160.71-23.07L160.71-23.07Q161.24-25.31 161.67-25.71L161.67-25.71Q162.11-26.02 164-26.02L164-26.02Q164.53-26.02 164.79-26.02L164.79-26.02Q165.06-26.02 165.5-26.02L165.5-26.02Q167.48-26.02 167.83-25.66L167.83-25.66Q168.22-25.22 168.22-22.68L168.22-22.68Q168.22-22.59 168.22-22.46L168.22-22.46Q168.22-21.84 168.22-21.53L168.22-21.53Q168.18-18.9 168.09-18.35 168-17.8 167.52-17.58ZM145.06-29L145.06-29Q146.82-28.08 147.57-29.62L147.57-29.62Q148.32-31.2 147.26-33.27L147.26-33.27Q146.87-34.1 146.21-34.72L146.21-34.72Q144.49-36.39 141.81-37.35L141.81-37.35Q140.19-37.92 140.36-37.31L140.36-37.31Q140.36-37.13 140.58-36.87L140.58-36.87Q143.22-33.49 144.23-30.23L144.23-30.23Q144.4-29.71 144.47-29.55 144.54-29.4 144.67-29.27 144.8-29.14 145.06-29Z" transform="translate(-2.3658974170684814, 37.97372055053711)"></path></g> <!----> <!----> <!----> <!----> <!----> <!----> <!----></g></g> <g data-gra="path-slogan" fill-rule="" class="tp-slogan iconsvg-slogansvg" fill="#ee7300" transform="translate(5,47.765403747558594)"><rect x="0" height="1" y="3.9750003814697266" width="28.711624145507812"></rect> <rect height="1" y="3.9750003814697266" width="28.711624145507812" x="137.23162841796875"></rect> <g transform="translate(31.711624145507812,0)"><g transform="scale(1)"><path d="M2.30-8.58L6.61-1.64L6.61-8.58L7.73-8.58L7.73 0L6.42 0L2.06-6.94L2.02-6.94L2.02 0L0.89 0L0.89-8.58L2.30-8.58ZM15.19 0L14.34-2.48L10.88-2.48L9.98 0L8.81 0L12.05-8.58L13.36-8.58L16.45 0L15.19 0ZM12.61-7.31L11.25-3.52L13.92-3.52L12.66-7.31L12.61-7.31ZM18.89-8.58L23.20-1.64L23.20-8.58L24.33-8.58L24.33 0L23.02 0L18.66-6.94L18.61-6.94L18.61 0L17.48 0L17.48-8.58L18.89-8.58ZM27.52-8.58L31.83-1.64L31.83-8.58L32.95-8.58L32.95 0L31.64 0L27.28-6.94L27.23-6.94L27.23 0L26.11 0L26.11-8.58L27.52-8.58ZM34.92-8.58L36.09-8.58L36.09 0L34.92 0L34.92-8.58ZM39.47-8.58L43.78-1.64L43.78-8.58L44.91-8.58L44.91 0L43.59 0L39.23-6.94L39.19-6.94L39.19 0L38.06 0L38.06-8.58L39.47-8.58ZM53.11-3.61L50.48-3.61L50.48-4.59L54.23-4.59L54.23 0L53.48 0L53.20-1.08Q52.22 0.09 50.39 0.14L50.39 0.14Q48.66 0.14 47.72-0.75L47.72-0.75Q46.31-2.06 46.36-4.36L46.36-4.36Q46.69-8.63 50.44-8.81L50.44-8.81Q53.63-8.63 54.09-6L54.09-6L52.97-6Q52.50-7.78 50.39-7.83L50.39-7.83Q47.72-7.64 47.58-4.31L47.58-4.31Q47.58-0.75 50.44-0.75L50.44-0.75Q51.47-0.75 52.22-1.31L52.22-1.31Q53.16-2.06 53.11-3.61L53.11-3.61ZM66.09-8.58L63.19-4.41L66.23 0L64.78 0L62.44-3.52L60.09 0L58.69 0L61.78-4.41L58.88-8.58L60.33-8.58L62.48-5.30L64.69-8.58L66.09-8.58ZM67.50-8.58L68.67-8.58L68.67 0L67.50 0L67.50-8.58ZM72.05-8.58L76.36-1.64L76.36-8.58L77.48-8.58L77.48 0L76.17 0L71.81-6.94L71.77-6.94L71.77 0L70.64 0L70.64-8.58L72.05-8.58ZM85.69-3.61L83.06-3.61L83.06-4.59L86.81-4.59L86.81 0L86.06 0L85.78-1.08Q84.80 0.09 82.97 0.14L82.97 0.14Q81.23 0.14 80.30-0.75L80.30-0.75Q78.89-2.06 78.94-4.36L78.94-4.36Q79.27-8.63 83.02-8.81L83.02-8.81Q86.20-8.63 86.67-6L86.67-6L85.55-6Q85.08-7.78 82.97-7.83L82.97-7.83Q80.30-7.64 80.16-4.31L80.16-4.31Q80.16-0.75 83.02-0.75L83.02-0.75Q84.05-0.75 84.80-1.31L84.80-1.31Q85.73-2.06 85.69-3.61L85.69-3.61ZM95.53-8.58L92.30-3.47L92.30 0L91.13 0L91.13-3.47L87.89-8.58L89.25-8.58L91.69-4.45L94.17-8.58L95.53-8.58ZM102.23-3.19L102.23-8.58L103.41-8.58L103.41-3.05Q103.27 0.05 99.89 0.14L99.89 0.14Q96.75 0.05 96.61-2.86L96.61-2.86L96.61-8.58L97.78-8.58L97.78-3.19Q97.83-0.84 99.94-0.80L99.94-0.80Q102.23-0.84 102.23-3.19L102.23-3.19Z" transform="translate(-0.890625, 8.8125)"></path></g></g></g></g></g><defs v-gra="od"></defs></svg>